<?xml version="1.0" encoding="utf-8"?>
<!-- Generator: Adobe Illustrator 16.0.0, SVG Export Plug-In . SVG Version: 6.00 Build 0)  -->
<!DOCTYPE svg PUBLIC "-//W3C//DTD SVG 1.1//EN" "http://www.w3.org/Graphics/SVG/1.1/DTD/svg11.dtd">
<svg version="1.1" id="Layer_1" xmlns="http://www.w3.org/2000/svg" xmlns:xlink="http://www.w3.org/1999/xlink" x="0px" y="0px"
	 width="76px" height="76px" viewBox="0 0 76 76" enable-background="new 0 0 76 76" xml:space="preserve">
<path fill="none" stroke="#FFFFFF" stroke-width="3" stroke-linecap="round" stroke-linejoin="round" stroke-miterlimit="10" d="
	M38,1.499c-20.162,0-36.5,16.34-36.5,36.506C1.499,58.16,17.837,74.5,38,74.5c20.163,0,36.5-16.34,36.5-36.495
	C74.5,17.839,58.162,1.499,38,1.499z M42.591,45.433c-0.919,0.942-2.212,1.521-3.631,1.521c-2.826,0-5.106-2.292-5.106-5.106
	c0-2.236,1.43-4.131,3.427-4.823l0.159-0.056l27.314-12.396L42.591,45.433z"/>
<path fill="none" stroke="#FFFFFF" stroke-width="3" stroke-linecap="round" stroke-linejoin="round" stroke-miterlimit="10" d="
	M52.751,59.091c0,2.662-2.159,4.821-4.823,4.821H26.938c-2.664,0-4.823-2.159-4.823-4.821l0,0c0-2.664,2.159-4.823,4.823-4.823
	h20.989C50.592,54.268,52.751,56.427,52.751,59.091L52.751,59.091z"/>
<line fill="none" stroke="#FFFFFF" stroke-width="3" stroke-linecap="round" stroke-linejoin="round" stroke-miterlimit="10" x1="38" y1="11.334" x2="38" y2="1.519"/>
<line fill="none" stroke="#FFFFFF" stroke-width="3" stroke-linecap="round" stroke-linejoin="round" stroke-miterlimit="10" x1="51.993" y1="14.928" x2="57.115" y2="6.901"/>
<line fill="none" stroke="#FFFFFF" stroke-width="3" stroke-linecap="round" stroke-linejoin="round" stroke-miterlimit="10" x1="66.062" y1="38.568" x2="74.497" y2="38.568"/>
<line fill="none" stroke="#FFFFFF" stroke-width="3" stroke-linecap="round" stroke-linejoin="round" stroke-miterlimit="10" x1="62.018" y1="52.093" x2="69.175" y2="56.991"/>
<line fill="none" stroke="#FFFFFF" stroke-width="3" stroke-linecap="round" stroke-linejoin="round" stroke-miterlimit="10" x1="24.005" y1="14.928" x2="18.884" y2="6.901"/>
<line fill="none" stroke="#FFFFFF" stroke-width="3" stroke-linecap="round" stroke-linejoin="round" stroke-miterlimit="10" x1="13.981" y1="24.668" x2="5.892" y2="20.632"/>
<line fill="none" stroke="#FFFFFF" stroke-width="3" stroke-linecap="round" stroke-linejoin="round" stroke-miterlimit="10" x1="9.938" y1="38.568" x2="1.502" y2="38.568"/>
<line fill="none" stroke="#FFFFFF" stroke-width="3" stroke-linecap="round" stroke-linejoin="round" stroke-miterlimit="10" x1="13.981" y1="52.093" x2="6.824" y2="56.991"/>
</svg>
