<?xml version="1.0" encoding="utf-8"?>
<!-- Generator: Adobe Illustrator 16.0.0, SVG Export Plug-In . SVG Version: 6.00 Build 0)  -->
<!DOCTYPE svg PUBLIC "-//W3C//DTD SVG 1.1//EN" "http://www.w3.org/Graphics/SVG/1.1/DTD/svg11.dtd">
<svg version="1.1" id="Layer_1" xmlns="http://www.w3.org/2000/svg" xmlns:xlink="http://www.w3.org/1999/xlink" x="0px" y="0px"
	 width="76px" height="76px" viewBox="0 0 76 76" enable-background="new 0 0 76 76" xml:space="preserve">
<path fill="none" stroke="#FFFFFF" stroke-width="3" stroke-linecap="round" stroke-linejoin="round" stroke-miterlimit="10" d="
	M74.29,38c0,20.042-16.282,36.29-36.37,36.29C17.833,74.29,1.71,58.042,1.71,38c0-20.043,16.123-36.29,36.21-36.29
	C58.008,1.71,74.29,17.957,74.29,38z M37.245,16.92c-7.8,0-14.116,6.303-14.116,14.085c0,2.703,0.765,5.234,2.097,7.382
	 M30.904,53.86c-0.294-8.97-5.679-15.472-5.679-15.472 M49.475,38.388c1.331-2.148,2.097-4.679,2.097-7.382
	c0-7.783-6.317-14.085-14.117-14.085 M49.475,38.388c0,0-5.178,6.502-5.471,15.472 M44.004,52.294h-13.1v10.347h13.1V52.294z
	 M32.698,62.641l2.124,5.191h5.565l2.123-5.191 M30.904,58.659l13.1-2.387 M37.455,12.026V6.853 M50.919,16.681L54.67,13.1
	 M20.85,13.1l3.111,3.581 M56.344,28.38l5.425-1.037 M59.294,43.022l-4.624-2.587 M13.593,26.868l5.025,1.512 M15.148,43.022
	l4.746-2.544 M32.698,23.921c0,0-6.909,4.76-0.688,14.079"/>
</svg>
